<svg width="605" height="512" xmlns="http://www.w3.org/2000/svg" xmlns:xlink="http://www.w3.org/1999/xlink" overflow="hidden"><defs><clipPath id="clip0"><path d="M338 138 943 138 943 650 338 650Z" fill-rule="evenodd" clip-rule="evenodd"/></clipPath></defs><g clip-path="url(#clip0)" transform="translate(-338 -138)"><rect x="339.5" y="139.5" width="168" height="121" stroke="#2F528F" stroke-width="1.33333" stroke-miterlimit="8" fill="#4472C4"/><rect x="429.5" y="148.5" width="62" height="43" stroke="#AE5A21" stroke-width="1.33333" stroke-miterlimit="8" fill="#ED7D31"/><text font-family="Calibri,Calibri_MSFontService,sans-serif" font-weight="400" font-size="24" transform="translate(442.79 177)">A<tspan font-size="16" x="13.8333" y="5">0,1</tspan></text><rect x="429.5" y="208.5" width="62" height="43" stroke="#507E32" stroke-width="1.33333" stroke-miterlimit="8" fill="#70AD47"/><text font-family="Calibri,Calibri_MSFontService,sans-serif" font-weight="400" font-size="24" transform="translate(443.206 237)">B<tspan font-size="16" x="13" y="5">1</tspan><tspan font-size="16" x="21.1667" y="5">,0</tspan></text><rect x="353.5" y="178.5" width="62" height="43" stroke="#BC8C00" stroke-width="1.33333" stroke-miterlimit="8" fill="#FFC000"/><text font-family="Calibri,Calibri_MSFontService,sans-serif" font-weight="400" font-size="24" transform="translate(367.207 207)">C<tspan font-size="16" x="12.8333" y="5">0,0</tspan></text><rect x="556.5" y="139.5" width="168" height="121" stroke="#2F528F" stroke-width="1.33333" stroke-miterlimit="8" fill="#4472C4"/><rect x="645.5" y="148.5" width="63" height="43" stroke="#AE5A21" stroke-width="1.33333" stroke-miterlimit="8" fill="#ED7D31"/><text font-family="Calibri,Calibri_MSFontService,sans-serif" font-weight="400" font-size="24" transform="translate(659.59 177)">A<tspan font-size="16" x="13.8333" y="5">0,2</tspan></text><rect x="645.5" y="208.5" width="63" height="43" stroke="#507E32" stroke-width="1.33333" stroke-miterlimit="8" fill="#70AD47"/><text font-family="Calibri,Calibri_MSFontService,sans-serif" font-weight="400" font-size="24" transform="translate(660.006 237)">B<tspan font-size="16" x="13" y="5">1</tspan><tspan font-size="16" x="21.1667" y="5">,1</tspan></text><rect x="569.5" y="178.5" width="63" height="43" stroke="#BC8C00" stroke-width="1.33333" stroke-miterlimit="8" fill="#FFC000"/><text font-family="Calibri,Calibri_MSFontService,sans-serif" font-weight="400" font-size="24" transform="translate(584.007 207)">C<tspan font-size="16" x="12.8333" y="5">0,1</tspan></text><rect x="773.5" y="139.5" width="168" height="121" stroke="#2F528F" stroke-width="1.33333" stroke-miterlimit="8" fill="#4472C4"/><rect x="862.5" y="148.5" width="63" height="43" stroke="#AE5A21" stroke-width="1.33333" stroke-miterlimit="8" fill="#ED7D31"/><text font-family="Calibri,Calibri_MSFontService,sans-serif" font-weight="400" font-size="24" transform="translate(876.39 177)">A<tspan font-size="16" x="13.8333" y="5">0,0</tspan></text><rect x="862.5" y="208.5" width="63" height="43" stroke="#507E32" stroke-width="1.33333" stroke-miterlimit="8" fill="#70AD47"/><text font-family="Calibri,Calibri_MSFontService,sans-serif" font-weight="400" font-size="24" transform="translate(876.806 237)">B<tspan font-size="16" x="13" y="5">1</tspan><tspan font-size="16" x="21.1667" y="5">,2</tspan></text><rect x="786.5" y="178.5" width="63" height="43" stroke="#BC8C00" stroke-width="1.33333" stroke-miterlimit="8" fill="#FFC000"/><text font-family="Calibri,Calibri_MSFontService,sans-serif" font-weight="400" font-size="24" transform="translate(800.807 207)">C<tspan font-size="16" x="12.8333" y="5">0,2</tspan></text><rect x="339.5" y="300.5" width="168" height="120" stroke="#2F528F" stroke-width="1.33333" stroke-miterlimit="8" fill="#4472C4"/><rect x="429.5" y="308.5" width="62" height="44" stroke="#AE5A21" stroke-width="1.33333" stroke-miterlimit="8" fill="#ED7D31"/><text font-family="Calibri,Calibri_MSFontService,sans-serif" font-weight="400" font-size="24" transform="translate(442.79 337)">A<tspan font-size="16" x="13.8333" y="5">1,1</tspan></text><rect x="429.5" y="368.5" width="62" height="44" stroke="#507E32" stroke-width="1.33333" stroke-miterlimit="8" fill="#70AD47"/><text font-family="Calibri,Calibri_MSFontService,sans-serif" font-weight="400" font-size="24" transform="translate(443.206 398)">B<tspan font-size="16" x="13" y="5">2</tspan><tspan font-size="16" x="21.1667" y="5">,0</tspan></text><rect x="353.5" y="338.5" width="62" height="44" stroke="#BC8C00" stroke-width="1.33333" stroke-miterlimit="8" fill="#FFC000"/><text font-family="Calibri,Calibri_MSFontService,sans-serif" font-weight="400" font-size="24" transform="translate(367.207 368)">C<tspan font-size="16" x="12.8333" y="5">1</tspan><tspan font-size="16" x="21" y="5">,0</tspan></text><rect x="556.5" y="300.5" width="168" height="120" stroke="#2F528F" stroke-width="1.33333" stroke-miterlimit="8" fill="#4472C4"/><rect x="645.5" y="308.5" width="63" height="44" stroke="#AE5A21" stroke-width="1.33333" stroke-miterlimit="8" fill="#ED7D31"/><text font-family="Calibri,Calibri_MSFontService,sans-serif" font-weight="400" font-size="24" transform="translate(659.59 337)">A<tspan font-size="16" x="13.8333" y="5">1,2</tspan></text><rect x="645.5" y="368.5" width="63" height="44" stroke="#507E32" stroke-width="1.33333" stroke-miterlimit="8" fill="#70AD47"/><text font-family="Calibri,Calibri_MSFontService,sans-serif" font-weight="400" font-size="24" transform="translate(660.006 398)">B<tspan font-size="16" x="13" y="5">2,1</tspan></text><rect x="569.5" y="338.5" width="63" height="44" stroke="#BC8C00" stroke-width="1.33333" stroke-miterlimit="8" fill="#FFC000"/><text font-family="Calibri,Calibri_MSFontService,sans-serif" font-weight="400" font-size="24" transform="translate(584.007 368)">C<tspan font-size="16" x="12.8333" y="5">1,1</tspan></text><rect x="773.5" y="300.5" width="168" height="120" stroke="#2F528F" stroke-width="1.33333" stroke-miterlimit="8" fill="#4472C4"/><rect x="862.5" y="308.5" width="63" height="44" stroke="#AE5A21" stroke-width="1.33333" stroke-miterlimit="8" fill="#ED7D31"/><text font-family="Calibri,Calibri_MSFontService,sans-serif" font-weight="400" font-size="24" transform="translate(876.39 337)">A<tspan font-size="16" x="13.8333" y="5">1,0</tspan></text><rect x="862.5" y="368.5" width="63" height="44" stroke="#507E32" stroke-width="1.33333" stroke-miterlimit="8" fill="#70AD47"/><text font-family="Calibri,Calibri_MSFontService,sans-serif" font-weight="400" font-size="24" transform="translate(876.806 398)">B<tspan font-size="16" x="13" y="5">1,2</tspan></text><rect x="786.5" y="338.5" width="63" height="44" stroke="#BC8C00" stroke-width="1.33333" stroke-miterlimit="8" fill="#FFC000"/><text font-family="Calibri,Calibri_MSFontService,sans-serif" font-weight="400" font-size="24" transform="translate(800.807 368)">C<tspan font-size="16" x="12.8333" y="5">1,2</tspan></text><rect x="339.5" y="460.5" width="168" height="121" stroke="#2F528F" stroke-width="1.33333" stroke-miterlimit="8" fill="#4472C4"/><rect x="429.5" y="469.5" width="62" height="43" stroke="#AE5A21" stroke-width="1.33333" stroke-miterlimit="8" fill="#ED7D31"/><text font-family="Calibri,Calibri_MSFontService,sans-serif" font-weight="400" font-size="24" transform="translate(442.79 498)">A<tspan font-size="16" x="13.8333" y="5">2,1</tspan></text><rect x="429.5" y="529.5" width="62" height="43" stroke="#507E32" stroke-width="1.33333" stroke-miterlimit="8" fill="#70AD47"/><text font-family="Calibri,Calibri_MSFontService,sans-serif" font-weight="400" font-size="24" transform="translate(443.206 558)">B<tspan font-size="16" x="13" y="5">0</tspan><tspan font-size="16" x="21.1667" y="5">,0</tspan></text><rect x="353.5" y="499.5" width="62" height="43" stroke="#BC8C00" stroke-width="1.33333" stroke-miterlimit="8" fill="#FFC000"/><text font-family="Calibri,Calibri_MSFontService,sans-serif" font-weight="400" font-size="24" transform="translate(367.207 528)">C<tspan font-size="16" x="12.8333" y="5">2</tspan><tspan font-size="16" x="21" y="5">,0</tspan></text><rect x="556.5" y="460.5" width="168" height="121" stroke="#2F528F" stroke-width="1.33333" stroke-miterlimit="8" fill="#4472C4"/><rect x="645.5" y="469.5" width="63" height="43" stroke="#AE5A21" stroke-width="1.33333" stroke-miterlimit="8" fill="#ED7D31"/><text font-family="Calibri,Calibri_MSFontService,sans-serif" font-weight="400" font-size="24" transform="translate(659.59 498)">A<tspan font-size="16" x="13.8333" y="5">2,2</tspan></text><rect x="645.5" y="529.5" width="63" height="43" stroke="#507E32" stroke-width="1.33333" stroke-miterlimit="8" fill="#70AD47"/><text font-family="Calibri,Calibri_MSFontService,sans-serif" font-weight="400" font-size="24" transform="translate(660.006 558)">B<tspan font-size="16" x="13" y="5">0</tspan><tspan font-size="16" x="21.1667" y="5">,1</tspan></text><rect x="569.5" y="499.5" width="63" height="43" stroke="#BC8C00" stroke-width="1.33333" stroke-miterlimit="8" fill="#FFC000"/><text font-family="Calibri,Calibri_MSFontService,sans-serif" font-weight="400" font-size="24" transform="translate(584.007 528)">C<tspan font-size="16" x="12.8333" y="5">2,1</tspan></text><rect x="773.5" y="460.5" width="168" height="121" stroke="#2F528F" stroke-width="1.33333" stroke-miterlimit="8" fill="#4472C4"/><rect x="862.5" y="469.5" width="63" height="43" stroke="#AE5A21" stroke-width="1.33333" stroke-miterlimit="8" fill="#ED7D31"/><text font-family="Calibri,Calibri_MSFontService,sans-serif" font-weight="400" font-size="24" transform="translate(876.39 498)">A<tspan font-size="16" x="13.8333" y="5">2,0</tspan></text><rect x="862.5" y="529.5" width="63" height="43" stroke="#507E32" stroke-width="1.33333" stroke-miterlimit="8" fill="#70AD47"/><text font-family="Calibri,Calibri_MSFontService,sans-serif" font-weight="400" font-size="24" transform="translate(876.806 558)">B<tspan font-size="16" x="13" y="5">0</tspan><tspan font-size="16" x="21.1667" y="5">,2</tspan></text><rect x="786.5" y="499.5" width="63" height="43" stroke="#BC8C00" stroke-width="1.33333" stroke-miterlimit="8" fill="#FFC000"/><text font-family="Calibri,Calibri_MSFontService,sans-serif" font-weight="400" font-size="24" transform="translate(800.807 528)">C<tspan font-size="16" x="12.8333" y="5">2,2</tspan><tspan x="-240.677" y="100">Step 2 : Multiply</tspan></text></g></svg>